# xmcd CD database file
#
# Track frame offsets:
#	150
#	22250
#	46916
#	75895
#	95532
#	116331
#	142079
#	166113
#	191260
#	207196
#
# Disc length: 3119 seconds
#
# Revision: 0
# Processed by: cddbd v1.4PL0 Copyright (c) Steve Scherf et al.
# Submitted via: CDex 1.50beta10
#
DISCID=780c2d0a
DTITLE=Various Artist - A Journey To Cuba
DYEAR=2002
DGENRE=Rhythmic Soul
TTITLE0=Chan Chan
TTITLE1=Ponte Pa' La Cosa
TTITLE2=Guantanamera
TTITLE3=De Camino A La Vereda
TTITLE4=Bilongo
TTITLE5=Mamba Yoyo
TTITLE6=Son Te Llama
TTITLE7=Cangrejo Fue A Estudiar
TTITLE8=Maria En La Playa
TTITLE9=Son De La Loma
EXTD=YEAR: 2002
EXTT0=
EXTT1=
EXTT2=
EXTT3=
EXTT4=
EXTT5=
EXTT6=
EXTT7=
EXTT8=
EXTT9=
PLAYORDER=
